<svg height="48" viewBox="0 0 73 48" width="73" xmlns="http://www.w3.org/2000/svg" xmlns:xlink="http://www.w3.org/1999/xlink"><linearGradient id="a" x1="0%" x2="100%" y1="0%" y2="0%"><stop offset="0" stop-color="#febb3b"/><stop offset="1" stop-color="#2ba988"/></linearGradient><g fill="none" fill-rule="evenodd"><rect fill="url(#a)" height="48" rx="4.35" width="73"/><path d="m48.965235 10.5h18.361963v3.75h-18.361963z" fill="#fff"/><path d="m18.9591002 40.05v1.95h-15.97341513v-1.95zm12.8384458-2.55v1.5h-28.81186093v-1.5zm-14.9284253-6.45v1.95h-13.88343563v-1.95zm3.7321063-2.55v1.5h-17.61554193v-1.5zm-4.0306749-6.45v1.95h-13.58486703v-1.95zm3.4335379-2.55v1.5h-17.01840493v-1.5zm-5.6728017-6.45v1.95h-11.34560323v-1.95zm7.7627812-2.55v1.5h-19.10838443v-1.5zm30.1554193-7.5v2.7h-31.6482618v-2.7z" fill="#000" opacity=".442697"/><g fill-rule="nonzero"><path d="m46 18h24v24h-24z" fill="#fff"/><g fill="#000"><path d="m47.92 19.92h1v1h-1z"/><path d="m48.88 19.92h1v1h-1z"/><path d="m49.84 19.92h1v1h-1z"/><path d="m50.8 19.92h1v1h-1z"/><path d="m51.76 19.92h1v1h-1z"/><path d="m52.72 19.92h1v1h-1z"/><path d="m53.68 19.92h1v1h-1z"/><path d="m56.56 19.92h1v1h-1z"/><path d="m58.48 19.92h1v1h-1z"/><path d="m59.44 19.92h1v1h-1z"/><path d="m61.36 19.92h1v1h-1z"/><path d="m62.32 19.92h1v1h-1z"/><path d="m63.28 19.92h1v1h-1z"/><path d="m64.24 19.92h1v1h-1z"/><path d="m65.2 19.92h1v1h-1z"/><path d="m66.16 19.92h1v1h-1z"/><path d="m67.12 19.92h1v1h-1z"/><path d="m47.92 20.88h1v1h-1z"/><path d="m53.68 20.88h1v1h-1z"/><path d="m56.56 20.88h1v1h-1z"/><path d="m57.52 20.88h1v1h-1z"/><path d="m58.48 20.88h1v1h-1z"/><path d="m61.36 20.88h1v1h-1z"/><path d="m67.12 20.88h1v1h-1z"/><path d="m47.92 21.84h1v1h-1z"/><path d="m49.84 21.84h1v1h-1z"/><path d="m50.8 21.84h1v1h-1z"/><path d="m51.76 21.84h1v1h-1z"/><path d="m53.68 21.84h1v1h-1z"/><path d="m55.6 21.84h1v1h-1z"/><path d="m56.56 21.84h1v1h-1z"/><path d="m58.48 21.84h1v1h-1z"/><path d="m59.44 21.84h1v1h-1z"/><path d="m61.36 21.84h1v1h-1z"/><path d="m63.28 21.84h1v1h-1z"/><path d="m64.24 21.84h1v1h-1z"/><path d="m65.2 21.84h1v1h-1z"/><path d="m67.12 21.84h1v1h-1z"/><path d="m47.92 22.8h1v1h-1z"/><path d="m49.84 22.8h1v1h-1z"/><path d="m50.8 22.8h1v1h-1z"/><path d="m51.76 22.8h1v1h-1z"/><path d="m53.68 22.8h1v1h-1z"/><path d="m56.56 22.8h1v1h-1z"/><path d="m58.48 22.8h1v1h-1z"/><path d="m61.36 22.8h1v1h-1z"/><path d="m63.28 22.8h1v1h-1z"/><path d="m64.24 22.8h1v1h-1z"/><path d="m65.2 22.8h1v1h-1z"/><path d="m67.12 22.8h1v1h-1z"/><path d="m47.92 23.76h1v1h-1z"/><path d="m49.84 23.76h1v1h-1z"/><path d="m50.8 23.76h1v1h-1z"/><path d="m51.76 23.76h1v1h-1z"/><path d="m53.68 23.76h1v1h-1z"/><path d="m57.52 23.76h1v1h-1z"/><path d="m59.44 23.76h1v1h-1z"/><path d="m61.36 23.76h1v1h-1z"/><path d="m63.28 23.76h1v1h-1z"/><path d="m64.24 23.76h1v1h-1z"/><path d="m65.2 23.76h1v1h-1z"/><path d="m67.12 23.76h1v1h-1z"/><path d="m47.92 24.72h1v1h-1z"/><path d="m53.68 24.72h1v1h-1z"/><path d="m59.44 24.72h1v1h-1z"/><path d="m61.36 24.72h1v1h-1z"/><path d="m67.12 24.72h1v1h-1z"/><path d="m47.92 25.68h1v1h-1z"/><path d="m48.88 25.68h1v1h-1z"/><path d="m49.84 25.68h1v1h-1z"/><path d="m50.8 25.68h1v1h-1z"/><path d="m51.76 25.68h1v1h-1z"/><path d="m52.72 25.68h1v1h-1z"/><path d="m53.68 25.68h1v1h-1z"/><path d="m55.6 25.68h1v1h-1z"/><path d="m57.52 25.68h1v1h-1z"/><path d="m59.44 25.68h1v1h-1z"/><path d="m61.36 25.68h1v1h-1z"/><path d="m62.32 25.68h1v1h-1z"/><path d="m63.28 25.68h1v1h-1z"/><path d="m64.24 25.68h1v1h-1z"/><path d="m65.2 25.68h1v1h-1z"/><path d="m66.16 25.68h1v1h-1z"/><path d="m67.12 25.68h1v1h-1z"/><path d="m55.6 26.64h1v1h-1z"/><path d="m56.56 26.64h1v1h-1z"/><path d="m58.48 26.64h1v1h-1z"/><path d="m59.44 26.64h1v1h-1z"/><path d="m47.92 27.6h1v1h-1z"/><path d="m48.88 27.6h1v1h-1z"/><path d="m49.84 27.6h1v1h-1z"/><path d="m51.76 27.6h1v1h-1z"/><path d="m52.72 27.6h1v1h-1z"/><path d="m53.68 27.6h1v1h-1z"/><path d="m54.64 27.6h1v1h-1z"/><path d="m55.6 27.6h1v1h-1z"/><path d="m56.56 27.6h1v1h-1z"/><path d="m57.52 27.6h1v1h-1z"/><path d="m58.48 27.6h1v1h-1z"/><path d="m60.4 27.6h1v1h-1z"/><path d="m61.36 27.6h1v1h-1z"/><path d="m65.2 27.6h1v1h-1z"/><path d="m48.88 28.56h1v1h-1z"/><path d="m51.76 28.56h1v1h-1z"/><path d="m52.72 28.56h1v1h-1z"/><path d="m56.56 28.56h1v1h-1z"/><path d="m61.36 28.56h1v1h-1z"/><path d="m64.24 28.56h1v1h-1z"/><path d="m67.12 28.56h1v1h-1z"/><path d="m48.88 29.52h1v1h-1z"/><path d="m53.68 29.52h1v1h-1z"/><path d="m54.64 29.52h1v1h-1z"/><path d="m56.56 29.52h1v1h-1z"/><path d="m57.52 29.52h1v1h-1z"/><path d="m59.44 29.52h1v1h-1z"/><path d="m63.28 29.52h1v1h-1z"/><path d="m64.24 29.52h1v1h-1z"/><path d="m65.2 29.52h1v1h-1z"/><path d="m67.12 29.52h1v1h-1z"/><path d="m47.92 30.48h1v1h-1z"/><path d="m49.84 30.48h1v1h-1z"/><path d="m50.8 30.48h1v1h-1z"/><path d="m52.72 30.48h1v1h-1z"/><path d="m54.64 30.48h1v1h-1z"/><path d="m61.36 30.48h1v1h-1z"/><path d="m67.12 30.48h1v1h-1z"/><path d="m48.88 31.44h1v1h-1z"/><path d="m49.84 31.44h1v1h-1z"/><path d="m51.76 31.44h1v1h-1z"/><path d="m53.68 31.44h1v1h-1z"/><path d="m54.64 31.44h1v1h-1z"/><path d="m57.52 31.44h1v1h-1z"/><path d="m59.44 31.44h1v1h-1z"/><path d="m61.36 31.44h1v1h-1z"/><path d="m63.28 31.44h1v1h-1z"/><path d="m66.16 31.44h1v1h-1z"/><path d="m55.6 32.4h1v1h-1z"/><path d="m56.56 32.4h1v1h-1z"/><path d="m57.52 32.4h1v1h-1z"/><path d="m58.48 32.4h1v1h-1z"/><path d="m60.4 32.4h1v1h-1z"/><path d="m62.32 32.4h1v1h-1z"/><path d="m66.16 32.4h1v1h-1z"/><path d="m67.12 32.4h1v1h-1z"/><path d="m47.92 33.36h1v1h-1z"/><path d="m48.88 33.36h1v1h-1z"/><path d="m49.84 33.36h1v1h-1z"/><path d="m50.8 33.36h1v1h-1z"/><path d="m51.76 33.36h1v1h-1z"/><path d="m52.72 33.36h1v1h-1z"/><path d="m53.68 33.36h1v1h-1z"/><path d="m55.6 33.36h1v1h-1z"/><path d="m56.56 33.36h1v1h-1z"/><path d="m57.52 33.36h1v1h-1z"/><path d="m58.48 33.36h1v1h-1z"/><path d="m60.4 33.36h1v1h-1z"/><path d="m61.36 33.36h1v1h-1z"/><path d="m62.32 33.36h1v1h-1z"/><path d="m64.24 33.36h1v1h-1z"/><path d="m66.16 33.36h1v1h-1z"/><path d="m67.12 33.36h1v1h-1z"/><path d="m47.92 34.32h1v1h-1z"/><path d="m53.68 34.32h1v1h-1z"/><path d="m55.6 34.32h1v1h-1z"/><path d="m56.56 34.32h1v1h-1z"/><path d="m58.48 34.32h1v1h-1z"/><path d="m59.44 34.32h1v1h-1z"/><path d="m60.4 34.32h1v1h-1z"/><path d="m62.32 34.32h1v1h-1z"/><path d="m63.28 34.32h1v1h-1z"/><path d="m64.24 34.32h1v1h-1z"/><path d="m67.12 34.32h1v1h-1z"/><path d="m47.92 35.28h1v1h-1z"/><path d="m49.84 35.28h1v1h-1z"/><path d="m50.8 35.28h1v1h-1z"/><path d="m51.76 35.28h1v1h-1z"/><path d="m53.68 35.28h1v1h-1z"/><path d="m55.6 35.28h1v1h-1z"/><path d="m57.52 35.28h1v1h-1z"/><path d="m58.48 35.28h1v1h-1z"/><path d="m60.4 35.28h1v1h-1z"/><path d="m61.36 35.28h1v1h-1z"/><path d="m62.32 35.28h1v1h-1z"/><path d="m65.2 35.28h1v1h-1z"/><path d="m67.12 35.28h1v1h-1z"/><path d="m47.92 36.24h1v1h-1z"/><path d="m49.84 36.24h1v1h-1z"/><path d="m50.8 36.24h1v1h-1z"/><path d="m51.76 36.24h1v1h-1z"/><path d="m53.68 36.24h1v1h-1z"/><path d="m56.56 36.24h1v1h-1z"/><path d="m61.36 36.24h1v1h-1z"/><path d="m65.2 36.24h1v1h-1z"/><path d="m66.16 36.24h1v1h-1z"/><path d="m47.92 37.2h1v1h-1z"/><path d="m49.84 37.2h1v1h-1z"/><path d="m50.8 37.2h1v1h-1z"/><path d="m51.76 37.2h1v1h-1z"/><path d="m53.68 37.2h1v1h-1z"/><path d="m55.6 37.2h1v1h-1z"/><path d="m59.44 37.2h1v1h-1z"/><path d="m63.28 37.2h1v1h-1z"/><path d="m67.12 37.2h1v1h-1z"/><path d="m47.92 38.16h1v1h-1z"/><path d="m53.68 38.16h1v1h-1z"/><path d="m55.6 38.16h1v1h-1z"/><path d="m57.52 38.16h1v1h-1z"/><path d="m61.36 38.16h1v1h-1z"/><path d="m65.2 38.16h1v1h-1z"/><path d="m66.16 38.16h1v1h-1z"/><path d="m47.92 39.12h1v1h-1z"/><path d="m48.88 39.12h1v1h-1z"/><path d="m49.84 39.12h1v1h-1z"/><path d="m50.8 39.12h1v1h-1z"/><path d="m51.76 39.12h1v1h-1z"/><path d="m52.72 39.12h1v1h-1z"/><path d="m53.68 39.12h1v1h-1z"/><path d="m55.6 39.12h1v1h-1z"/><path d="m59.44 39.12h1v1h-1z"/><path d="m61.36 39.12h1v1h-1z"/><path d="m63.28 39.12h1v1h-1z"/><path d="m65.2 39.12h1v1h-1z"/><path d="m66.16 39.12h1v1h-1z"/><path d="m67.12 39.12h1v1h-1z"/></g></g></g></svg>