<?xml version="1.0" encoding="UTF-8"?>
<svg width="73px" height="48px" viewBox="0 0 73 48" version="1.1" xmlns="http://www.w3.org/2000/svg" xmlns:xlink="http://www.w3.org/1999/xlink">
    <defs>
        <linearGradient x1="0%" y1="0%" x2="100%" y2="0%" id="linearGradient-1">
            <stop stop-color="#FEBB3B" offset="0%"></stop>
            <stop stop-color="#2BA988" offset="100%"></stop>
        </linearGradient>
    </defs>
    <g id="Page-1" stroke="none" stroke-width="1" fill="none" fill-rule="evenodd">
        <g id="iPhone-8" transform="translate(-20.000000, -20.000000)">
            <g id="Group" transform="translate(20.000000, 20.000000)">
                <rect fill="url(#linearGradient-1)" x="0" y="0" width="73" height="48" rx="4.35"></rect>
                <rect fill="#FFFFFF" x="48.9652352" y="10.5" width="18.3619632" height="3.75"></rect>
                <path d="M18.9591002,40.05 L18.9591002,42 L2.98568507,42 L2.98568507,40.05 L18.9591002,40.05 Z M31.797546,37.5 L31.797546,39 L2.98568507,39 L2.98568507,37.5 L31.797546,37.5 Z M16.8691207,31.05 L16.8691207,33 L2.98568507,33 L2.98568507,31.05 L16.8691207,31.05 Z M20.601227,28.5 L20.601227,30 L2.98568507,30 L2.98568507,28.5 L20.601227,28.5 Z M16.5705521,22.05 L16.5705521,24 L2.98568507,24 L2.98568507,22.05 L16.5705521,22.05 Z M20.00409,19.5 L20.00409,21 L2.98568507,21 L2.98568507,19.5 L20.00409,19.5 Z M14.3312883,13.05 L14.3312883,15 L2.98568507,15 L2.98568507,13.05 L14.3312883,13.05 Z M22.0940695,10.5 L22.0940695,12 L2.98568507,12 L2.98568507,10.5 L22.0940695,10.5 Z M52.2494888,3 L52.2494888,5.7 L20.601227,5.7 L20.601227,3 L52.2494888,3 Z" id="Combined-Shape" fill="#000000" opacity="0.442696708"></path>
                <g transform="translate(46.000000, 18.000000)" fill-rule="nonzero">
                    <rect fill="#FFFFFF" x="0" y="0" width="24" height="24"></rect>
                    <rect fill="#000000" x="1.92" y="1.92" width="1" height="1"></rect>
                    <rect fill="#000000" x="2.88" y="1.92" width="1" height="1"></rect>
                    <rect fill="#000000" x="3.84" y="1.92" width="1" height="1"></rect>
                    <rect fill="#000000" x="4.8" y="1.92" width="1" height="1"></rect>
                    <rect fill="#000000" x="5.76" y="1.92" width="1" height="1"></rect>
                    <rect fill="#000000" x="6.72" y="1.92" width="1" height="1"></rect>
                    <rect fill="#000000" x="7.68" y="1.92" width="1" height="1"></rect>
                    <rect fill="#000000" x="10.56" y="1.92" width="1" height="1"></rect>
                    <rect fill="#000000" x="12.48" y="1.92" width="1" height="1"></rect>
                    <rect fill="#000000" x="13.44" y="1.92" width="1" height="1"></rect>
                    <rect fill="#000000" x="15.36" y="1.92" width="1" height="1"></rect>
                    <rect fill="#000000" x="16.32" y="1.92" width="1" height="1"></rect>
                    <rect fill="#000000" x="17.28" y="1.92" width="1" height="1"></rect>
                    <rect fill="#000000" x="18.24" y="1.92" width="1" height="1"></rect>
                    <rect fill="#000000" x="19.2" y="1.92" width="1" height="1"></rect>
                    <rect fill="#000000" x="20.16" y="1.92" width="1" height="1"></rect>
                    <rect fill="#000000" x="21.12" y="1.92" width="1" height="1"></rect>
                    <rect fill="#000000" x="1.92" y="2.88" width="1" height="1"></rect>
                    <rect fill="#000000" x="7.68" y="2.88" width="1" height="1"></rect>
                    <rect fill="#000000" x="10.56" y="2.88" width="1" height="1"></rect>
                    <rect fill="#000000" x="11.52" y="2.88" width="1" height="1"></rect>
                    <rect fill="#000000" x="12.48" y="2.88" width="1" height="1"></rect>
                    <rect fill="#000000" x="15.36" y="2.88" width="1" height="1"></rect>
                    <rect fill="#000000" x="21.12" y="2.88" width="1" height="1"></rect>
                    <rect fill="#000000" x="1.92" y="3.84" width="1" height="1"></rect>
                    <rect fill="#000000" x="3.84" y="3.84" width="1" height="1"></rect>
                    <rect fill="#000000" x="4.8" y="3.84" width="1" height="1"></rect>
                    <rect fill="#000000" x="5.76" y="3.84" width="1" height="1"></rect>
                    <rect fill="#000000" x="7.68" y="3.84" width="1" height="1"></rect>
                    <rect fill="#000000" x="9.6" y="3.84" width="1" height="1"></rect>
                    <rect fill="#000000" x="10.56" y="3.84" width="1" height="1"></rect>
                    <rect fill="#000000" x="12.48" y="3.84" width="1" height="1"></rect>
                    <rect fill="#000000" x="13.44" y="3.84" width="1" height="1"></rect>
                    <rect fill="#000000" x="15.36" y="3.84" width="1" height="1"></rect>
                    <rect fill="#000000" x="17.28" y="3.84" width="1" height="1"></rect>
                    <rect fill="#000000" x="18.24" y="3.84" width="1" height="1"></rect>
                    <rect fill="#000000" x="19.2" y="3.84" width="1" height="1"></rect>
                    <rect fill="#000000" x="21.12" y="3.84" width="1" height="1"></rect>
                    <rect fill="#000000" x="1.92" y="4.8" width="1" height="1"></rect>
                    <rect fill="#000000" x="3.84" y="4.8" width="1" height="1"></rect>
                    <rect fill="#000000" x="4.8" y="4.8" width="1" height="1"></rect>
                    <rect fill="#000000" x="5.76" y="4.8" width="1" height="1"></rect>
                    <rect fill="#000000" x="7.68" y="4.8" width="1" height="1"></rect>
                    <rect fill="#000000" x="10.56" y="4.8" width="1" height="1"></rect>
                    <rect fill="#000000" x="12.48" y="4.8" width="1" height="1"></rect>
                    <rect fill="#000000" x="15.36" y="4.8" width="1" height="1"></rect>
                    <rect fill="#000000" x="17.28" y="4.8" width="1" height="1"></rect>
                    <rect fill="#000000" x="18.24" y="4.8" width="1" height="1"></rect>
                    <rect fill="#000000" x="19.2" y="4.8" width="1" height="1"></rect>
                    <rect fill="#000000" x="21.12" y="4.8" width="1" height="1"></rect>
                    <rect fill="#000000" x="1.92" y="5.76" width="1" height="1"></rect>
                    <rect fill="#000000" x="3.84" y="5.76" width="1" height="1"></rect>
                    <rect fill="#000000" x="4.8" y="5.76" width="1" height="1"></rect>
                    <rect fill="#000000" x="5.76" y="5.76" width="1" height="1"></rect>
                    <rect fill="#000000" x="7.68" y="5.76" width="1" height="1"></rect>
                    <rect fill="#000000" x="11.52" y="5.76" width="1" height="1"></rect>
                    <rect fill="#000000" x="13.44" y="5.76" width="1" height="1"></rect>
                    <rect fill="#000000" x="15.36" y="5.76" width="1" height="1"></rect>
                    <rect fill="#000000" x="17.28" y="5.76" width="1" height="1"></rect>
                    <rect fill="#000000" x="18.24" y="5.76" width="1" height="1"></rect>
                    <rect fill="#000000" x="19.2" y="5.76" width="1" height="1"></rect>
                    <rect fill="#000000" x="21.12" y="5.76" width="1" height="1"></rect>
                    <rect fill="#000000" x="1.92" y="6.72" width="1" height="1"></rect>
                    <rect fill="#000000" x="7.68" y="6.72" width="1" height="1"></rect>
                    <rect fill="#000000" x="13.44" y="6.72" width="1" height="1"></rect>
                    <rect fill="#000000" x="15.36" y="6.72" width="1" height="1"></rect>
                    <rect fill="#000000" x="21.12" y="6.72" width="1" height="1"></rect>
                    <rect fill="#000000" x="1.92" y="7.68" width="1" height="1"></rect>
                    <rect fill="#000000" x="2.88" y="7.68" width="1" height="1"></rect>
                    <rect fill="#000000" x="3.84" y="7.68" width="1" height="1"></rect>
                    <rect fill="#000000" x="4.8" y="7.68" width="1" height="1"></rect>
                    <rect fill="#000000" x="5.76" y="7.68" width="1" height="1"></rect>
                    <rect fill="#000000" x="6.72" y="7.68" width="1" height="1"></rect>
                    <rect fill="#000000" x="7.68" y="7.68" width="1" height="1"></rect>
                    <rect fill="#000000" x="9.6" y="7.68" width="1" height="1"></rect>
                    <rect fill="#000000" x="11.52" y="7.68" width="1" height="1"></rect>
                    <rect fill="#000000" x="13.44" y="7.68" width="1" height="1"></rect>
                    <rect fill="#000000" x="15.36" y="7.68" width="1" height="1"></rect>
                    <rect fill="#000000" x="16.32" y="7.68" width="1" height="1"></rect>
                    <rect fill="#000000" x="17.28" y="7.68" width="1" height="1"></rect>
                    <rect fill="#000000" x="18.24" y="7.68" width="1" height="1"></rect>
                    <rect fill="#000000" x="19.2" y="7.68" width="1" height="1"></rect>
                    <rect fill="#000000" x="20.16" y="7.68" width="1" height="1"></rect>
                    <rect fill="#000000" x="21.12" y="7.68" width="1" height="1"></rect>
                    <rect fill="#000000" x="9.6" y="8.64" width="1" height="1"></rect>
                    <rect fill="#000000" x="10.56" y="8.64" width="1" height="1"></rect>
                    <rect fill="#000000" x="12.48" y="8.64" width="1" height="1"></rect>
                    <rect fill="#000000" x="13.44" y="8.64" width="1" height="1"></rect>
                    <rect fill="#000000" x="1.92" y="9.6" width="1" height="1"></rect>
                    <rect fill="#000000" x="2.88" y="9.6" width="1" height="1"></rect>
                    <rect fill="#000000" x="3.84" y="9.6" width="1" height="1"></rect>
                    <rect fill="#000000" x="5.76" y="9.6" width="1" height="1"></rect>
                    <rect fill="#000000" x="6.72" y="9.6" width="1" height="1"></rect>
                    <rect fill="#000000" x="7.68" y="9.6" width="1" height="1"></rect>
                    <rect fill="#000000" x="8.64" y="9.6" width="1" height="1"></rect>
                    <rect fill="#000000" x="9.6" y="9.6" width="1" height="1"></rect>
                    <rect fill="#000000" x="10.56" y="9.6" width="1" height="1"></rect>
                    <rect fill="#000000" x="11.52" y="9.6" width="1" height="1"></rect>
                    <rect fill="#000000" x="12.48" y="9.6" width="1" height="1"></rect>
                    <rect fill="#000000" x="14.4" y="9.6" width="1" height="1"></rect>
                    <rect fill="#000000" x="15.36" y="9.6" width="1" height="1"></rect>
                    <rect fill="#000000" x="19.2" y="9.6" width="1" height="1"></rect>
                    <rect fill="#000000" x="2.88" y="10.56" width="1" height="1"></rect>
                    <rect fill="#000000" x="5.76" y="10.56" width="1" height="1"></rect>
                    <rect fill="#000000" x="6.72" y="10.56" width="1" height="1"></rect>
                    <rect fill="#000000" x="10.56" y="10.56" width="1" height="1"></rect>
                    <rect fill="#000000" x="15.36" y="10.56" width="1" height="1"></rect>
                    <rect fill="#000000" x="18.24" y="10.56" width="1" height="1"></rect>
                    <rect fill="#000000" x="21.12" y="10.56" width="1" height="1"></rect>
                    <rect fill="#000000" x="2.88" y="11.52" width="1" height="1"></rect>
                    <rect fill="#000000" x="7.68" y="11.52" width="1" height="1"></rect>
                    <rect fill="#000000" x="8.64" y="11.52" width="1" height="1"></rect>
                    <rect fill="#000000" x="10.56" y="11.52" width="1" height="1"></rect>
                    <rect fill="#000000" x="11.52" y="11.52" width="1" height="1"></rect>
                    <rect fill="#000000" x="13.44" y="11.52" width="1" height="1"></rect>
                    <rect fill="#000000" x="17.28" y="11.52" width="1" height="1"></rect>
                    <rect fill="#000000" x="18.24" y="11.52" width="1" height="1"></rect>
                    <rect fill="#000000" x="19.2" y="11.52" width="1" height="1"></rect>
                    <rect fill="#000000" x="21.12" y="11.52" width="1" height="1"></rect>
                    <rect fill="#000000" x="1.92" y="12.48" width="1" height="1"></rect>
                    <rect fill="#000000" x="3.84" y="12.48" width="1" height="1"></rect>
                    <rect fill="#000000" x="4.8" y="12.48" width="1" height="1"></rect>
                    <rect fill="#000000" x="6.72" y="12.48" width="1" height="1"></rect>
                    <rect fill="#000000" x="8.64" y="12.48" width="1" height="1"></rect>
                    <rect fill="#000000" x="15.36" y="12.48" width="1" height="1"></rect>
                    <rect fill="#000000" x="21.12" y="12.48" width="1" height="1"></rect>
                    <rect fill="#000000" x="2.88" y="13.44" width="1" height="1"></rect>
                    <rect fill="#000000" x="3.84" y="13.44" width="1" height="1"></rect>
                    <rect fill="#000000" x="5.76" y="13.44" width="1" height="1"></rect>
                    <rect fill="#000000" x="7.68" y="13.44" width="1" height="1"></rect>
                    <rect fill="#000000" x="8.64" y="13.44" width="1" height="1"></rect>
                    <rect fill="#000000" x="11.52" y="13.44" width="1" height="1"></rect>
                    <rect fill="#000000" x="13.44" y="13.44" width="1" height="1"></rect>
                    <rect fill="#000000" x="15.36" y="13.44" width="1" height="1"></rect>
                    <rect fill="#000000" x="17.28" y="13.44" width="1" height="1"></rect>
                    <rect fill="#000000" x="20.16" y="13.44" width="1" height="1"></rect>
                    <rect fill="#000000" x="9.6" y="14.4" width="1" height="1"></rect>
                    <rect fill="#000000" x="10.56" y="14.4" width="1" height="1"></rect>
                    <rect fill="#000000" x="11.52" y="14.4" width="1" height="1"></rect>
                    <rect fill="#000000" x="12.48" y="14.4" width="1" height="1"></rect>
                    <rect fill="#000000" x="14.4" y="14.4" width="1" height="1"></rect>
                    <rect fill="#000000" x="16.32" y="14.4" width="1" height="1"></rect>
                    <rect fill="#000000" x="20.16" y="14.4" width="1" height="1"></rect>
                    <rect fill="#000000" x="21.12" y="14.4" width="1" height="1"></rect>
                    <rect fill="#000000" x="1.92" y="15.36" width="1" height="1"></rect>
                    <rect fill="#000000" x="2.88" y="15.36" width="1" height="1"></rect>
                    <rect fill="#000000" x="3.84" y="15.36" width="1" height="1"></rect>
                    <rect fill="#000000" x="4.8" y="15.36" width="1" height="1"></rect>
                    <rect fill="#000000" x="5.76" y="15.36" width="1" height="1"></rect>
                    <rect fill="#000000" x="6.72" y="15.36" width="1" height="1"></rect>
                    <rect fill="#000000" x="7.68" y="15.36" width="1" height="1"></rect>
                    <rect fill="#000000" x="9.6" y="15.36" width="1" height="1"></rect>
                    <rect fill="#000000" x="10.56" y="15.36" width="1" height="1"></rect>
                    <rect fill="#000000" x="11.52" y="15.36" width="1" height="1"></rect>
                    <rect fill="#000000" x="12.48" y="15.36" width="1" height="1"></rect>
                    <rect fill="#000000" x="14.4" y="15.36" width="1" height="1"></rect>
                    <rect fill="#000000" x="15.36" y="15.36" width="1" height="1"></rect>
                    <rect fill="#000000" x="16.32" y="15.36" width="1" height="1"></rect>
                    <rect fill="#000000" x="18.24" y="15.36" width="1" height="1"></rect>
                    <rect fill="#000000" x="20.16" y="15.36" width="1" height="1"></rect>
                    <rect fill="#000000" x="21.12" y="15.36" width="1" height="1"></rect>
                    <rect fill="#000000" x="1.92" y="16.32" width="1" height="1"></rect>
                    <rect fill="#000000" x="7.68" y="16.32" width="1" height="1"></rect>
                    <rect fill="#000000" x="9.6" y="16.32" width="1" height="1"></rect>
                    <rect fill="#000000" x="10.56" y="16.32" width="1" height="1"></rect>
                    <rect fill="#000000" x="12.48" y="16.32" width="1" height="1"></rect>
                    <rect fill="#000000" x="13.44" y="16.32" width="1" height="1"></rect>
                    <rect fill="#000000" x="14.4" y="16.32" width="1" height="1"></rect>
                    <rect fill="#000000" x="16.32" y="16.32" width="1" height="1"></rect>
                    <rect fill="#000000" x="17.28" y="16.32" width="1" height="1"></rect>
                    <rect fill="#000000" x="18.24" y="16.32" width="1" height="1"></rect>
                    <rect fill="#000000" x="21.12" y="16.32" width="1" height="1"></rect>
                    <rect fill="#000000" x="1.92" y="17.28" width="1" height="1"></rect>
                    <rect fill="#000000" x="3.84" y="17.28" width="1" height="1"></rect>
                    <rect fill="#000000" x="4.8" y="17.28" width="1" height="1"></rect>
                    <rect fill="#000000" x="5.76" y="17.28" width="1" height="1"></rect>
                    <rect fill="#000000" x="7.68" y="17.28" width="1" height="1"></rect>
                    <rect fill="#000000" x="9.6" y="17.28" width="1" height="1"></rect>
                    <rect fill="#000000" x="11.52" y="17.28" width="1" height="1"></rect>
                    <rect fill="#000000" x="12.48" y="17.28" width="1" height="1"></rect>
                    <rect fill="#000000" x="14.4" y="17.28" width="1" height="1"></rect>
                    <rect fill="#000000" x="15.36" y="17.28" width="1" height="1"></rect>
                    <rect fill="#000000" x="16.32" y="17.28" width="1" height="1"></rect>
                    <rect fill="#000000" x="19.2" y="17.28" width="1" height="1"></rect>
                    <rect fill="#000000" x="21.12" y="17.28" width="1" height="1"></rect>
                    <rect fill="#000000" x="1.92" y="18.24" width="1" height="1"></rect>
                    <rect fill="#000000" x="3.84" y="18.24" width="1" height="1"></rect>
                    <rect fill="#000000" x="4.8" y="18.24" width="1" height="1"></rect>
                    <rect fill="#000000" x="5.76" y="18.24" width="1" height="1"></rect>
                    <rect fill="#000000" x="7.68" y="18.24" width="1" height="1"></rect>
                    <rect fill="#000000" x="10.56" y="18.24" width="1" height="1"></rect>
                    <rect fill="#000000" x="15.36" y="18.24" width="1" height="1"></rect>
                    <rect fill="#000000" x="19.2" y="18.24" width="1" height="1"></rect>
                    <rect fill="#000000" x="20.16" y="18.24" width="1" height="1"></rect>
                    <rect fill="#000000" x="1.92" y="19.2" width="1" height="1"></rect>
                    <rect fill="#000000" x="3.84" y="19.2" width="1" height="1"></rect>
                    <rect fill="#000000" x="4.8" y="19.2" width="1" height="1"></rect>
                    <rect fill="#000000" x="5.76" y="19.2" width="1" height="1"></rect>
                    <rect fill="#000000" x="7.68" y="19.2" width="1" height="1"></rect>
                    <rect fill="#000000" x="9.6" y="19.2" width="1" height="1"></rect>
                    <rect fill="#000000" x="13.44" y="19.2" width="1" height="1"></rect>
                    <rect fill="#000000" x="17.28" y="19.2" width="1" height="1"></rect>
                    <rect fill="#000000" x="21.12" y="19.2" width="1" height="1"></rect>
                    <rect fill="#000000" x="1.92" y="20.16" width="1" height="1"></rect>
                    <rect fill="#000000" x="7.68" y="20.16" width="1" height="1"></rect>
                    <rect fill="#000000" x="9.6" y="20.16" width="1" height="1"></rect>
                    <rect fill="#000000" x="11.52" y="20.16" width="1" height="1"></rect>
                    <rect fill="#000000" x="15.36" y="20.16" width="1" height="1"></rect>
                    <rect fill="#000000" x="19.2" y="20.16" width="1" height="1"></rect>
                    <rect fill="#000000" x="20.16" y="20.16" width="1" height="1"></rect>
                    <rect fill="#000000" x="1.92" y="21.12" width="1" height="1"></rect>
                    <rect fill="#000000" x="2.88" y="21.12" width="1" height="1"></rect>
                    <rect fill="#000000" x="3.84" y="21.12" width="1" height="1"></rect>
                    <rect fill="#000000" x="4.8" y="21.12" width="1" height="1"></rect>
                    <rect fill="#000000" x="5.76" y="21.12" width="1" height="1"></rect>
                    <rect fill="#000000" x="6.72" y="21.12" width="1" height="1"></rect>
                    <rect fill="#000000" x="7.68" y="21.12" width="1" height="1"></rect>
                    <rect fill="#000000" x="9.6" y="21.12" width="1" height="1"></rect>
                    <rect fill="#000000" x="13.44" y="21.12" width="1" height="1"></rect>
                    <rect fill="#000000" x="15.36" y="21.12" width="1" height="1"></rect>
                    <rect fill="#000000" x="17.28" y="21.12" width="1" height="1"></rect>
                    <rect fill="#000000" x="19.2" y="21.12" width="1" height="1"></rect>
                    <rect fill="#000000" x="20.16" y="21.12" width="1" height="1"></rect>
                    <rect fill="#000000" x="21.12" y="21.12" width="1" height="1"></rect>
                </g>
            </g>
        </g>
    </g>
</svg>
