<svg height="15" viewBox="0 0 15 15" width="15" xmlns="http://www.w3.org/2000/svg"><path d="m17.6552734 26.3798828c.3984375 0 .7119141-.1669922.9404297-.5009766l7.8310547-12.2695312c.0820313-.1289062.1420899-.2490234.1801758-.3603516.0380859-.1113281.0571289-.2167968.0571289-.3164062 0-.2636719-.0820313-.4775391-.2460937-.6416016-.1640626-.1640625-.3779297-.2460937-.6416016-.2460937-.1875 0-.3427734.0366211-.4658203.1098633-.1230469.0732421-.2460938.2006836-.3691407.3823242l-7.3125 11.6455078-3.7880859-4.8955078c-.2167969-.2929688-.4833984-.4394532-.7998047-.4394532-.2695312 0-.4907226.084961-.6635742.2548829-.1728516.1699218-.2592773.3867187-.2592773.6503906 0 .1113281.0219726.2255859.0659179.3427734s.1157227.234375.2153321.3515625l4.2978515 5.4316406c.2753906.3339844.5947266.5009766.9580078.5009766z" fill="#185037" transform="translate(-12 -12)"/></svg>