<svg height="15" viewBox="0 0 19 15" width="19" xmlns="http://www.w3.org/2000/svg"><path d="m186.556152 433.464844c.761719 0 1.33545-.189209 1.721192-.567627s.578613-.946045.578613-1.702881v-7.668457c0-.751953-.192871-1.317139-.578613-1.695557s-.959473-.567627-1.721192-.567627h-2.094726c-.195313 0-.351563-.014648-.46875-.043945-.117188-.029297-.220947-.079346-.31128-.150146-.090332-.070801-.19165-.167237-.303955-.289307l-.585937-.65918c-.180664-.200195-.380859-.354004-.600586-.461426-.219727-.107421-.517578-.161132-.893555-.161132h-2.922363c-.375977 0-.672607.053711-.889893.161132-.217285.107422-.418701.261231-.604248.461426l-.585937.65918c-.161133.180664-.310059.306396-.446777.377197-.136719.070801-.349122.106201-.637207.106201h-2.043458c-.766601 0-1.341552.189209-1.724853.567627s-.574951.943604-.574951 1.695557v7.668457c0 .756836.19165 1.324463.574951 1.702881s.958252.567627 1.724853.567627zm-6.694336-2.160645c-.55664 0-1.07666-.102539-1.560058-.307617-.483399-.205078-.906983-.490723-1.270752-.856934-.36377-.36621-.649414-.791015-.856934-1.274414-.207519-.483398-.311279-1.005859-.311279-1.567382 0-.556641.10376-1.076661.311279-1.560059.20752-.483398.493164-.908203.856934-1.274414.363769-.366211.787353-.651856 1.270752-.856934.483398-.205078 1.003418-.307617 1.560058-.307617.737305 0 1.408692.178223 2.014161.534668.605468.356445 1.086425.837402 1.442871 1.442871.356445.605469.534668 1.279297.534668 2.021485 0 .561523-.102539 1.083984-.307618 1.567382-.205078.483399-.490722.908204-.856933 1.274414-.366211.366211-.791016.651856-1.274414.856934-.483399.205078-1.000977.307617-1.552735.307617zm5.434571-5.76416c-.258789.004883-.482178-.084228-.670166-.267334-.187989-.183105-.281983-.406494-.281983-.670166 0-.249023.093994-.467529.281983-.655518.187988-.187988.411377-.281982.670166-.281982.249023 0 .467529.093994.655517.281982.187989.187989.281983.406495.281983.655518 0 .263672-.093994.48584-.281983.666504-.187988.180664-.406494.270996-.655517.270996zm-5.434571 4.650879c.532227 0 1.016846-.129395 1.453858-.388184s.784912-.606689 1.043701-1.043701.388184-.924072.388184-1.461181c0-.532227-.129395-1.016846-.388184-1.453858s-.606689-.786133-1.043701-1.047363c-.437012-.261231-.921631-.391846-1.453858-.391846-.532226 0-1.016845.130615-1.453857.391846-.437012.26123-.786133.610351-1.047363 1.047363-.261231.437012-.391846.921631-.391846 1.453858 0 .537109.130615 1.024169.391846 1.461181.26123.437012.610351.784912 1.047363 1.043701s.921631.388184 1.453857.388184z" fill="#185037" transform="translate(-170 -419)"/></svg>