<svg height="9" viewBox="0 0 14 9" width="14" xmlns="http://www.w3.org/2000/svg"><path d="m328.78125 532.523438c.098958 0 .19401-.019532.285156-.058594.091146-.039063.170573-.095052.238282-.167969l6.046874-6.195313c.140626-.140624.210938-.307291.210938-.5 0-.135416-.03125-.257812-.09375-.367187s-.147135-.195313-.253906-.257813-.227865-.09375-.363282-.09375c-.192708 0-.361979.067709-.507812.203126l-5.56675 5.691062-5.566062-5.691062c-.140626-.135417-.309896-.203126-.507813-.203126-.135417 0-.25651.03125-.363281.09375s-.191406.148438-.253906.257813-.09375.231771-.09375.367187c0 .098959.018229.191407.054687.277344.036458.085938.088542.162761.15625.230469l6.046875 6.1875c.15625.151042.333333.226563.53125.226563z" transform="translate(-322 -524)"/></svg>