<svg height="192pt" preserveAspectRatio="xMidYMid meet" viewBox="0 0 192 192" width="192pt" xmlns="http://www.w3.org/2000/svg"><g transform="matrix(.1 0 0 -.1 0 192)"><path d="m410 1325v-185l183 2 182 3 3 183 2 182h-185-185zm315 0v-130h-130-130l-3 119c-1 66 0 126 2 133 4 11 34 13 133 11l128-3z"/><path d="m520 1325v-75h75 75v75 75h-75-75z"/><path d="m937 1504c-4-4-7-16-7-26 0-15-8-18-50-18-49 0-50-1-50-30s1-30 50-30c47 0 50-2 50-25s-3-25-50-25-50-2-50-25c0-20 5-25 25-25s25-5 25-25-5-25-25-25c-24 0-25-3-25-55s1-55 25-55c20 0 25-5 25-25 0-24-2-25-75-25s-75-1-75-25c0-23 3-25 50-25s50-2 50-25 3-25 49-25c47 0 50-2 53-27 3-26 7-28 56-31 48-3 52-5 52-28 0-19-5-24-25-24-23 0-24-3-27-77-3-75-4-78-28-78-20 0-25-5-25-25s6-26 28-28c21-3 27-9 27-28 0-22 4-24 50-24 47 0 50-2 50-25 0-25-1-25-80-25s-80 0-80 25c0 20-5 25-25 25s-25 5-25 25-5 25-25 25h-25v-130-131l78 3c70 3 77 5 80 25 3 17-2 22-25 25-22 2-28 8-28 28 0 23 3 25 50 25s50-2 53-28c3-25 6-27 53-27 46 0 49-2 49-25 0-24 3-25 56-25h55l-3 52c-3 49-5 53-28 53-20 0-26-6-28-28-3-21-9-27-28-27-23 0-24 2-24 80s1 80 24 80c18 0 25-6 28-22 3-20 10-23 56-26 48-3 52-5 52-28 0-19 5-24 24-24s25-6 28-27c2-20 9-29 25-31 14-2 23-11 25-25 4-32 52-31 56 1 3 19-1 22-27 22-31 0-31 0-31 55v55h-50c-47 0-50 2-50 25 0 20 5 25 25 25s25 5 25 25c0 34 47 37 52 3 3-20 10-23 56-26l52-3v80 81h-55c-52 0-55 1-55 25s-2 25-75 25-75 1-75 25v25h130 130v80c0 79 0 80-25 80-20 0-25 5-25 25 0 21-5 25-30 25s-30-4-30-25 5-25 31-25h30l-3-52c-3-49-5-53-28-53-20 0-26 6-28 28-3 21-9 27-28 27-22 0-24 4-24 50 0 47-2 50-25 50-20 0-25-5-25-25s-5-25-25-25-25 5-25 26c0 22-4 25-27 22-28-3-28-4-28-78s0-75 28-78c21-3 27-9 27-28 0-22-3-24-55-24s-55 1-55 25c0 20-5 25-25 25-21 0-25 5-25 30 0 29-1 30-50 30-47 0-50 2-50 25 0 20 5 25 25 25s25 5 25 25-5 25-25 25-25-5-25-25c0-24-3-25-55-25s-55 1-55 25c0 20 5 25 25 25s25 5 25 24 6 25 28 28c19 2 28 9 30 24 3 21 34 38 46 26 3-3 6-16 6-29 0-18 5-23 25-23 24 0 25 3 25 55v55h-50c-49 0-50-1-50-31 0-27-3-30-27-27s-28-1-31-24c-3-22-9-28-28-28-22 0-24 3-24 55s1 55 25 55c23 0 25 3 25 50 0 49 1 50 30 50 25 0 30-4 30-25 0-23 3-25 50-25h50v105c0 105 0 105-24 105-23 0-25-4-28-52-3-46-6-53-25-56-20-3-22 2-25 50-3 45-6 53-23 56-12 2-24 0-28-4zm363-544c0-25-4-30-25-30s-25 5-25 30 4 30 25 30 25-5 25-30zm-160-105c0-20-5-25-25-25s-25-5-25-25c0-23 3-25 49-25 44 0 50 3 53 23 2 16 11 23 31 25 23 3 27 0 27-22 0-21 5-26 25-26 24 0 25-3 25-55v-55h-80c-79 0-80 0-80-25 0-20-5-25-25-25s-25 5-25 25 5 25 26 25c22 0 25 4 22 28-2 19-9 27-23 27s-21 8-23 28c-3 21-9 27-28 27s-24 5-24 25 5 25 25 25 25 5 25 25 5 25 25 25 25-5 25-25zm260-103c0-24-4-28-22-27-17 1-24 9-26 28-3 23 0 27 22 27s26-5 26-28z"/><path d="m1142 1328 3-183 183-3 182-2v185 185h-185-185zm313-3v-130h-130-130l-3 119c-1 66 0 126 2 133 4 11 34 13 133 11l128-3z"/><path d="m1250 1325v-75h75 75v75 75h-75-75z"/><path d="m412 1013 3-78 53-3c48-3 53-5 50-25-2-16-11-23-30-25-22-3-28-9-28-28 0-22 3-24 55-24s55 1 55 25c0 20 5 25 25 25s25-5 25-25v-25h105 105v-50-50h50 50v75c0 73-1 75-25 75-20 0-25 5-25 25s-5 25-25 25-25-5-25-25v-25h-105-105v25c0 20 5 25 24 25s25 6 28 28c2 21 9 28 31 30 24 3 27 0 27-28 0-27 3-31 23-28 31 4 32 52 0 56-14 2-23 11-25 25-2 16-11 23-30 25-22 3-28 9-28 28v24h-130-131zm106 0c2-14 11-23 25-25 32-4 31-52 0-56-20-3-23 1-23 27 0 28-3 31-30 31-22 0-30 5-30 18 0 25 10 33 35 30 12-2 21-12 23-25z"/><path d="m1090 1065c0-20 5-25 25-25s25 5 25 25-5 25-25 25-25-5-25-25z"/><path d="m410 595v-185h185 185l-2 183-3 182-182 3-183 2zm315 0v-130h-130-130l-3 119c-1 66 0 126 2 133 4 11 34 13 133 11l128-3z"/><path d="m520 595v-75h75 75v75 75h-75-75z"/></g></svg>